<svg xmlns="http://www.w3.org/2000/svg" version="1.1" xmlnsXlink="http://www.w3.org/1999/xlink" xmlnsSvgjs="http://svgjs.dev/svgjs" width="2000" height="661" viewBox="0 0 2000 661"><g transform="matrix(1,0,0,1,-1.2121212121212466,0.8078813411991632)"><svg viewBox="0 0 396 131" dataBackgroundColor="#61777f" preserveAspectRatio="xMidYMid meet" height="661" width="2000" xmlns="http://www.w3.org/2000/svg" xmlnsXlink="http://www.w3.org/1999/xlink"><g id="tight-bounds" transform="matrix(1,0,0,1,0.2400000000000091,-0.16010961527547352)"><svg viewBox="0 0 395.52 130.59487716666536" height="130.59487716666536" width="395.52"><g><svg viewBox="0 0 658.1379821392874 217.30746595923654" height="130.59487716666536" width="395.52"><g transform="matrix(1,0,0,1,262.6179821392874,12.899667627040316)"><svg viewBox="0 0 395.52 191.5081307051559" height="191.5081307051559" width="395.52"><g id="textblocktransform"><svg viewBox="0 0 395.52 191.5081307051559" height="191.5081307051559" width="395.52" id="textblock"><g><svg viewBox="0 0 395.52 77.03714964370546" height="77.03714964370546" width="395.52"><g transform="matrix(1,0,0,1,0,0)"><svg width="395.52" viewBox="2.15 -34.6 231.53 45.1" height="77.03714964370546" dataPaletteColor="#ffffff"><path d="M17.1-34.6L17.1-34.6Q23.05-34.6 27.25-32.15 31.45-29.7 31.45-26.95L31.45-26.95Q31.45-26.2 31.13-25.68 30.8-25.15 30.33-24.93 29.85-24.7 29.3-24.7L29.3-24.7Q28.4-24.7 26.6-25.63 24.8-26.55 22.6-27.48 20.4-28.4 18.55-28.4L18.55-28.4Q15.6-28.4 15.6-26L15.6-26Q15.6-25.25 16.07-24.58 16.55-23.9 17.6-23.18 18.65-22.45 19.65-21.9 20.65-21.35 22.4-20.43 24.15-19.5 25.35-18.8L25.35-18.8Q29.2-16.6 30.75-14.6 32.3-12.6 32.3-10L32.3-10Q32.3 0.35 18.35 0.35L18.35 0.35Q15.6 0.35 13.03-0.2 10.45-0.75 8.53-1.65 6.6-2.55 5.13-3.65 3.65-4.75 2.9-5.9 2.15-7.05 2.15-8.05L2.15-8.05Q2.15-9.15 2.88-9.93 3.6-10.7 5-10.7L5-10.7Q6.05-10.7 10.05-9.38 14.05-8.05 16.5-8.05L16.5-8.05Q18.75-8.05 18.75-9.6L18.75-9.6Q18.75-10.05 18.57-10.43 18.4-10.8 17.98-11.18 17.55-11.55 17.03-11.88 16.5-12.2 15.58-12.7 14.65-13.2 13.73-13.7 12.8-14.2 11.3-15 9.8-15.8 8.4-16.6L8.4-16.6Q6.55-17.65 5.23-19.2 3.9-20.75 3.3-22.28 2.7-23.8 2.7-25.1L2.7-25.1Q2.7-29.3 6.45-31.95 10.2-34.6 17.1-34.6ZM38.5-10.7L38.5-10.7 38.5-16.6Q37.25-16.65 36.5-17.03 35.75-17.4 35.42-18 35.1-18.6 35.1-19.5L35.1-19.5Q35.1-22.35 38.55-22.6L38.55-22.6 38.55-27.25Q38.55-29.15 41.3-30.68 44.05-32.2 46.75-32.2L46.75-32.2Q48.4-32.2 48.9-31.25 49.4-30.3 49.4-28.4L49.4-28.4 49.45-22.65 50.8-22.65Q53.55-22.65 54.57-21.93 55.6-21.2 55.6-19.3L55.6-19.3Q55.6-18.5 55.3-17.95 55-17.4 54.32-17.1 53.65-16.8 52.7-16.68 51.75-16.55 50.35-16.55L50.35-16.55 49.45-16.55 49.45-11.05Q49.45-10.25 49.52-9.73 49.6-9.2 49.75-8.9 49.9-8.6 50.17-8.5 50.45-8.4 50.85-8.4L50.85-8.4Q51.45-8.4 51.85-8.83 52.25-9.25 52.47-9.78 52.7-10.3 53.07-10.73 53.45-11.15 53.95-11.15L53.95-11.15Q55.1-11.15 55.72-10.6 56.35-10.05 56.35-9.25L56.35-9.25Q56.35-7.9 55.82-6.35 55.3-4.8 54.3-3.35 53.3-1.9 51.52-0.95 49.75 0 47.55 0L47.55 0Q42.6 0 40.55-2.5 38.5-5 38.5-10.7ZM86.95-14.1L86.95-14.1Q86.95-5.55 86.45-2.15L86.45-2.15Q86.05 0.9 85.2 3.13 84.34 5.35 82.8 7.08 81.25 8.8 78.84 9.65 76.45 10.5 73.15 10.5L73.15 10.5Q70.5 10.5 68.22 9.73 65.95 8.95 64.62 7.83 63.3 6.7 62.55 5.6 61.8 4.5 61.8 3.7 61.8 2.9 62.32 2.23 62.85 1.55 63.75 1.55L63.75 1.55Q64.4 1.55 65.27 1.95 66.15 2.35 66.95 2.85 67.75 3.35 68.84 3.75 69.95 4.15 71 4.15L71 4.15Q73.7 4.15 74.82 2.8 75.95 1.45 75.95-1.05L75.95-1.05Q75.09-0.7 74.3-0.45 73.5-0.2 72.75-0.05 72 0.1 71.32 0.15 70.65 0.2 70 0.2L70 0.2Q67.05 0.2 64.95-1.45 62.85-3.1 61.92-5.53 61-7.95 61-10.75L61-10.75Q61-13.55 61.07-15.5 61.15-17.45 61.4-18.98 61.65-20.5 61.97-21.4 62.3-22.3 62.9-22.88 63.5-23.45 64.25-23.65 65-23.85 66.05-23.85L66.05-23.85Q69.2-23.85 70.47-22.78 71.75-21.7 71.75-19.4L71.75-19.4 71.8-11.35Q71.8-10.55 71.8-10.18 71.8-9.8 71.87-9.25 71.95-8.7 72.07-8.45 72.2-8.2 72.42-7.93 72.65-7.65 73.02-7.55 73.4-7.45 73.95-7.45L73.95-7.45Q75.45-7.45 75.82-8.28 76.2-9.1 76.2-11.3L76.2-11.3 76.25-19.4Q76.25-20.95 76.77-21.9 77.3-22.85 78.55-23.35 79.8-23.85 81.95-23.85L81.95-23.85Q83.25-23.85 84.17-23.43 85.09-23 85.65-22.33 86.2-21.65 86.47-20.33 86.75-19 86.84-17.65 86.95-16.3 86.95-14.1ZM102.39-28.7L102.39-7.55Q102.39-3.5 101.04-1.75 99.69 0 96.89 0L96.89 0Q94.09 0 92.79-1.58 91.49-3.15 91.49-7.15L91.49-7.15 91.39-28.25Q91.39-29.55 91.67-30.55 91.94-31.55 92.42-32.25 92.89-32.95 93.59-33.4 94.29-33.85 95.12-34.05 95.94-34.25 96.89-34.25L96.89-34.25Q99.64-34.25 101.02-33.15 102.39-32.05 102.39-28.7L102.39-28.7ZM123.14-11.85L123.14-11.85Q123.14-14.45 122.49-16.43 121.84-18.4 120.59-18.4L120.59-18.4Q119.74-18.4 119.09-17.4 118.44-16.4 118.14-14.95 117.84-13.5 117.84-11.85L117.84-11.85Q117.84-9.3 118.54-7.38 119.24-5.45 120.54-5.45 121.84-5.45 122.49-7.35 123.14-9.25 123.14-11.85ZM120.54 0.35L120.54 0.35Q116.64 0.35 113.52-1.05 110.39-2.45 108.52-5.25 106.64-8.05 106.64-11.8L106.64-11.8Q106.64-17.5 110.54-20.85 114.44-24.2 120.54-24.2 126.64-24.2 130.49-20.85 134.34-17.5 134.34-11.8L134.34-11.8Q134.34-6.15 130.41-2.9 126.49 0.35 120.54 0.35ZM158.84-25.85L158.84-25.85Q158.84-27.4 156.79-27.4L156.79-27.4Q154.69-27.4 153.19-25.05 151.69-22.7 151.69-17.2L151.69-17.2Q151.69-12.1 153.41-9.78 155.14-7.45 157.49-7.45L157.49-7.45Q158.24-7.45 158.86-7.75 159.49-8.05 159.89-8.65 160.29-9.25 160.29-10.1L160.29-10.1Q159.09-10.1 158.21-10.55 157.34-11 156.94-11.68 156.54-12.35 156.54-13.15L156.54-13.15Q156.54-14.95 157.49-15.85 158.44-16.75 160.74-16.75L160.74-16.75 166.79-16.75Q169.69-16.75 171.29-15.5 172.89-14.25 172.89-11.1L172.89-11.1Q172.89-6.5 168.49-3.08 164.09 0.35 158.04 0.35L158.04 0.35Q152.49 0.35 148.16-1.65 143.84-3.65 141.31-7.63 138.79-11.6 138.79-17.05L138.79-17.05Q138.79-25.15 143.69-29.85 148.59-34.55 156.69-34.55L156.69-34.55Q159.89-34.55 162.44-34.08 164.99-33.6 166.66-32.8 168.34-32 169.46-30.88 170.59-29.75 171.06-28.5 171.54-27.25 171.54-25.9L171.54-25.9Q171.54-24.95 171.24-24.08 170.94-23.2 170.16-22.33 169.39-21.45 167.79-20.9 166.19-20.35 163.94-20.35L163.94-20.35Q160.64-20.35 159.74-21.33 158.84-22.3 158.84-25.85ZM191.39 0.3L191.39 0.3Q185.28 0.3 181.31-2.85 177.34-6 177.34-11.45L177.34-11.45Q177.34-17.35 181.26-20.78 185.19-24.2 191.39-24.2L191.39-24.2Q197.24-24.2 199.96-22.13 202.69-20.05 202.69-16.45L202.69-16.45Q202.69-15.75 202.51-15.1 202.34-14.45 201.96-13.83 201.59-13.2 200.96-12.68 200.34-12.15 199.54-11.73 198.74-11.3 197.64-11.08 196.54-10.85 195.29-10.85L195.29-10.85 188.24-10.8Q188.74-9.2 190.03-8.28 191.34-7.35 193.34-7.35L193.34-7.35Q195.49-7.35 197.74-7.9L197.74-7.9Q198.69-8.15 199.81-8.7 200.94-9.25 201.44-9.25L201.44-9.25Q202.29-9.25 202.76-8.75 203.24-8.25 203.24-7.5L203.24-7.5Q203.24-6.6 202.44-5.33 201.64-4.05 200.21-2.78 198.79-1.5 196.44-0.6 194.09 0.3 191.39 0.3ZM187.99-14L187.99-14Q191.44-14.05 191.74-14.05L191.74-14.05Q192.49-14.05 192.84-14.95L192.84-14.95Q193.09-15.6 193.09-16.75L193.09-16.75Q193.09-19.9 191.19-19.9L191.19-19.9Q190.49-19.9 189.81-19.15 189.14-18.4 188.64-17.03 188.14-15.65 187.99-14ZM222.78-4.15L222.73-13.45Q222.73-16.25 220.53-16.25L220.53-16.25Q219.48-16.25 218.81-15.38 218.13-14.5 218.03-13.05L218.03-13.05 218.03-5.35Q218.03-2.3 216.78-1.15 215.53 0 212.38 0L212.38 0Q209.43 0 208.36-1.38 207.28-2.75 207.28-5.9L207.28-5.9 207.28-18.2Q207.28-20.75 208.66-22.3 210.03-23.85 212.33-23.85L212.33-23.85Q214.23-23.85 215.53-23.3 216.83-22.75 217.48-21.4L217.48-21.4Q221.38-23.95 226.98-23.95L226.98-23.95Q230.53-23.95 232.11-21.15 233.68-18.35 233.68-11.95L233.68-11.95Q233.68-8.8 233.53-6.83 233.38-4.85 233.06-3.43 232.73-2 232.03-1.3 231.33-0.6 230.41-0.3 229.48 0 228.03 0L228.03 0Q225.23 0 224.01-1.05 222.78-2.1 222.78-4.15L222.78-4.15Z" opacity="1" transform="matrix(1,0,0,1,0,0)" fill="#f1eeef" class="wordmark-text-0" dataFillPaletteColor="primary" id="text-0"></path></svg></g></svg></g><g transform="matrix(1,0,0,1,0,113.41039392228029)"><svg viewBox="0 0 395.52 78.09773678287563" height="78.09773678287563" width="395.52"><path d="M395.52 0l-13.016 39.049 13.016 39.049h-395.52l13.016-39.049-13.016-39.049z" dataFillPaletteColor="tertiary" opacity="2" fill="#f1eeef"></path><g transform="matrix(1,0,0,1,29.664000000000016,18.18662213928741)"><svg width="336.19199999999995" viewBox="3 -39.65 406.85 50.5" height="41.724492504300805" dataPaletteColor="#f1eeef"><path d="M10.7-34.55Q15.05-34.55 18.23-33.23 21.4-31.9 23.38-28.13 25.35-24.35 25.35-17.45L25.35-17.45Q25.35-7.7 21.48-3.85 17.6 0 11.35 0L11.35 0 3 0 3-34.55 10.7-34.55ZM11.65-29.8L9.35-29.8 9.35-4.75 11.7-4.75Q13.95-4.75 15.48-5.8 17-6.85 17.88-9.65 18.75-12.45 18.75-17.45L18.75-17.45Q18.75-22.55 17.82-25.25 16.9-27.95 15.38-28.88 13.85-29.8 11.65-29.8L11.65-29.8ZM29.95-26.45L36.1-26.45 36.1 0 29.95 0 29.95-26.45ZM33-39.65Q34.65-39.65 35.67-38.6 36.7-37.55 36.7-35.9L36.7-35.9Q36.7-34.3 35.67-33.25 34.65-32.2 33-32.2L33-32.2Q31.35-32.2 30.32-33.25 29.3-34.3 29.3-35.9L29.3-35.9Q29.3-37.55 30.32-38.6 31.35-39.65 33-39.65L33-39.65ZM49.15-27.15Q53.85-27.15 57.1-24.05L57.1-24.05 54.75-20.7Q53.35-21.7 52.1-22.2 50.85-22.7 49.55-22.7L49.55-22.7Q48.1-22.7 47.27-21.93 46.45-21.15 46.45-19.8L46.45-19.8Q46.45-18.45 47.37-17.63 48.3-16.8 51.1-15.7L51.1-15.7Q54.55-14.35 56.2-12.5 57.85-10.65 57.85-7.55L57.85-7.55Q57.85-3.7 55.15-1.48 52.45 0.75 48.3 0.75L48.3 0.75Q45.6 0.75 43.32-0.23 41.05-1.2 39.35-2.95L39.35-2.95 42.35-6.25Q45.15-3.8 48.05-3.8L48.05-3.8Q49.7-3.8 50.65-4.67 51.6-5.55 51.6-7.1L51.6-7.1Q51.6-8.25 51.2-8.97 50.8-9.7 49.8-10.33 48.8-10.95 46.8-11.7L46.8-11.7Q43.35-13.05 41.87-14.85 40.4-16.65 40.4-19.45L40.4-19.45Q40.4-22.8 42.77-24.98 45.15-27.15 49.15-27.15L49.15-27.15ZM71.19-27.15Q73.34-27.15 75.09-26.43 76.84-25.7 78.44-24.15L78.44-24.15 75.79-20.65Q74.69-21.55 73.72-21.98 72.74-22.4 71.59-22.4L71.59-22.4Q69.34-22.4 68.19-20.28 67.04-18.15 67.04-13.1L67.04-13.1Q67.04-8.2 68.22-6.2 69.39-4.2 71.59-4.2L71.59-4.2Q72.69-4.2 73.59-4.6 74.49-5 75.69-5.85L75.69-5.85 78.44-2.3Q75.24 0.75 71.29 0.75L71.29 0.75Q66.19 0.75 63.37-2.73 60.54-6.2 60.54-13L60.54-13Q60.54-17.4 61.84-20.6 63.14-23.8 65.57-25.48 67.99-27.15 71.19-27.15L71.19-27.15ZM90.89-27.15Q95.89-27.15 98.67-23.65 101.44-20.15 101.44-13.25L101.44-13.25Q101.44-6.65 98.64-2.95 95.84 0.75 90.89 0.75L90.89 0.75Q85.94 0.75 83.14-2.88 80.34-6.5 80.34-13.25L80.34-13.25Q80.34-19.95 83.14-23.55 85.94-27.15 90.89-27.15L90.89-27.15ZM90.89-22.5Q88.74-22.5 87.74-20.38 86.74-18.25 86.74-13.25L86.74-13.25Q86.74-8.2 87.74-6.08 88.74-3.95 90.89-3.95L90.89-3.95Q93.04-3.95 94.04-6.08 95.04-8.2 95.04-13.25L95.04-13.25Q95.04-18.3 94.04-20.4 93.04-22.5 90.89-22.5L90.89-22.5ZM118.39-26.45L124.44-26.45 117.54 0 110.29 0 103.19-26.45 109.54-26.45 113.89-4.95 118.39-26.45ZM146.19-13.85Q146.19-13.4 146.04-11.3L146.04-11.3 132.39-11.3Q132.59-7.2 133.81-5.58 135.04-3.95 137.29-3.95L137.29-3.95Q138.84-3.95 140.09-4.48 141.34-5 142.79-6.15L142.79-6.15 145.34-2.65Q141.84 0.75 136.94 0.75L136.94 0.75Q131.74 0.75 128.96-2.85 126.19-6.45 126.19-13L126.19-13Q126.19-19.55 128.84-23.35 131.49-27.15 136.34-27.15L136.34-27.15Q140.99-27.15 143.59-23.78 146.19-20.4 146.19-13.85L146.19-13.85ZM140.19-15.3L140.19-15.65Q140.19-19.4 139.29-21.13 138.39-22.85 136.39-22.85L136.39-22.85Q134.54-22.85 133.56-21.18 132.59-19.5 132.39-15.3L132.39-15.3 140.19-15.3ZM162.13-27.1Q163.28-27.1 164.18-26.75L164.18-26.75 163.18-20.85Q162.18-21.1 161.33-21.1L161.33-21.1Q159.43-21.1 158.33-19.45 157.23-17.8 156.63-14.55L156.63-14.55 156.63 0 150.48 0 150.48-26.45 155.83-26.45 156.28-21.85Q158.13-27.1 162.13-27.1L162.13-27.1ZM169.43-7.05Q171.03-7.05 172.06-5.98 173.08-4.9 173.08-3.25L173.08-3.25Q173.08-2.55 172.86-1.78 172.63-1 172.28-0.08 171.93 0.85 171.83 1.2L171.83 1.2 169.18 8.55 165.73 8.55 167.53 0.1Q165.73-1.2 165.73-3.2L165.73-3.2Q165.73-4.85 166.78-5.95 167.83-7.05 169.43-7.05L169.43-7.05ZM198.98-35.25Q201.63-35.25 203.65-34.38 205.68-33.5 207.58-31.7L207.58-31.7 204.53-28.05Q203.23-29.25 202-29.83 200.78-30.4 199.33-30.4L199.33-30.4Q196.33-30.4 194.63-27.4 192.93-24.4 192.93-17.35L192.93-17.35Q192.93-10.4 194.63-7.38 196.33-4.35 199.43-4.35L199.43-4.35Q200.98-4.35 202.13-4.98 203.28-5.6 204.83-6.9L204.83-6.9 207.88-3.4Q206.28-1.6 204.03-0.43 201.78 0.75 198.98 0.75L198.98 0.75Q193.13 0.75 189.68-3.8 186.23-8.35 186.23-17.35L186.23-17.35Q186.23-23.3 187.88-27.3 189.53-31.3 192.4-33.27 195.28-35.25 198.98-35.25L198.98-35.25ZM222.77-27.1Q223.92-27.1 224.82-26.75L224.82-26.75 223.82-20.85Q222.82-21.1 221.97-21.1L221.97-21.1Q220.07-21.1 218.97-19.45 217.87-17.8 217.27-14.55L217.27-14.55 217.27 0 211.12 0 211.12-26.45 216.47-26.45 216.92-21.85Q218.77-27.1 222.77-27.1L222.77-27.1ZM246.52-13.85Q246.52-13.4 246.37-11.3L246.37-11.3 232.72-11.3Q232.92-7.2 234.15-5.58 235.37-3.95 237.62-3.95L237.62-3.95Q239.17-3.95 240.42-4.48 241.67-5 243.12-6.15L243.12-6.15 245.67-2.65Q242.17 0.75 237.27 0.75L237.27 0.75Q232.07 0.75 229.3-2.85 226.52-6.45 226.52-13L226.52-13Q226.52-19.55 229.17-23.35 231.82-27.15 236.67-27.15L236.67-27.15Q241.32-27.15 243.92-23.78 246.52-20.4 246.52-13.85L246.52-13.85ZM240.52-15.3L240.52-15.65Q240.52-19.4 239.62-21.13 238.72-22.85 236.72-22.85L236.72-22.85Q234.87-22.85 233.9-21.18 232.92-19.5 232.72-15.3L232.72-15.3 240.52-15.3ZM267.72-6.4Q267.72-5.1 268.07-4.48 268.42-3.85 269.22-3.45L269.22-3.45 267.97 0.65Q265.92 0.4 264.69-0.45 263.47-1.3 262.87-3.05L262.87-3.05Q260.57 0.75 256.42 0.75L256.42 0.75Q253.12 0.75 251.17-1.48 249.22-3.7 249.22-7.4L249.22-7.4Q249.22-11.7 251.89-13.95 254.57-16.2 259.67-16.2L259.67-16.2 261.72-16.2 261.72-18.05Q261.72-20.55 260.84-21.58 259.97-22.6 258.02-22.6L258.02-22.6Q255.67-22.6 252.17-21.3L252.17-21.3 250.77-25.3Q252.77-26.2 254.92-26.68 257.07-27.15 259.02-27.15L259.02-27.15Q267.72-27.15 267.72-18.35L267.72-18.35 267.72-6.4ZM258.07-3.7Q260.47-3.7 261.72-7L261.72-7 261.72-12.55 260.27-12.55Q257.72-12.55 256.54-11.4 255.37-10.25 255.37-7.85L255.37-7.85Q255.37-5.8 256.07-4.75 256.77-3.7 258.07-3.7L258.07-3.7ZM284.67-5L286.82-1.2Q284.37 0.75 281.07 0.75L281.07 0.75Q277.62 0.75 275.82-1.23 274.02-3.2 274.02-6.6L274.02-6.6 274.02-22 270.92-22 270.92-26.45 274.02-26.45 274.02-32.3 280.17-33.05 280.17-26.45 285.17-26.45 284.57-22 280.17-22 280.17-6.6Q280.17-4.2 282.22-4.2L282.22-4.2Q282.87-4.2 283.37-4.38 283.87-4.55 284.67-5L284.67-5ZM308.21-13.85Q308.21-13.4 308.06-11.3L308.06-11.3 294.41-11.3Q294.61-7.2 295.84-5.58 297.06-3.95 299.31-3.95L299.31-3.95Q300.86-3.95 302.11-4.48 303.36-5 304.81-6.15L304.81-6.15 307.36-2.65Q303.86 0.75 298.96 0.75L298.96 0.75Q293.76 0.75 290.99-2.85 288.21-6.45 288.21-13L288.21-13Q288.21-19.55 290.86-23.35 293.51-27.15 298.36-27.15L298.36-27.15Q303.01-27.15 305.61-23.78 308.21-20.4 308.21-13.85L308.21-13.85ZM302.21-15.3L302.21-15.65Q302.21-19.4 301.31-21.13 300.41-22.85 298.41-22.85L298.41-22.85Q296.56-22.85 295.59-21.18 294.61-19.5 294.41-15.3L294.41-15.3 302.21-15.3ZM314.91-7.05Q316.51-7.05 317.54-5.98 318.56-4.9 318.56-3.25L318.56-3.25Q318.56-2.55 318.34-1.78 318.11-1 317.76-0.08 317.41 0.85 317.31 1.2L317.31 1.2 314.66 8.55 311.21 8.55 313.01 0.1Q311.21-1.2 311.21-3.2L311.21-3.2Q311.21-4.85 312.26-5.95 313.31-7.05 314.91-7.05L314.91-7.05ZM341.71-35.25Q344.71-35.25 347.01-34.2 349.31-33.15 351.26-31.05L351.26-31.05 348.31-27.65Q346.76-29.05 345.28-29.75 343.81-30.45 342.16-30.45L342.16-30.45Q340.26-30.45 339.16-29.28 338.06-28.1 338.06-26.2L338.06-26.2Q338.06-24.3 339.21-23.1 340.36-21.9 343.71-20.6L343.71-20.6Q348.01-18.85 350.03-16.5 352.06-14.15 352.06-9.85L352.06-9.85Q352.06-6.9 350.71-4.48 349.36-2.05 346.83-0.65 344.31 0.75 340.96 0.75L340.96 0.75Q337.51 0.75 334.96-0.48 332.41-1.7 330.31-3.95L330.31-3.95 333.51-7.45Q335.31-5.85 336.96-5 338.61-4.15 340.56-4.15L340.56-4.15Q342.86-4.15 344.13-5.58 345.41-7 345.41-9.45L345.41-9.45Q345.41-11.6 344.28-12.98 343.16-14.35 340.11-15.5L340.11-15.5Q335.51-17.35 333.48-19.75 331.46-22.15 331.46-25.75L331.46-25.75Q331.46-28.5 332.78-30.65 334.11-32.8 336.46-34.02 338.81-35.25 341.71-35.25L341.71-35.25ZM361.65 0.75Q358.95 0.75 357.38-0.93 355.8-2.6 355.8-5.4L355.8-5.4 355.8-37.05 361.95-37.7 361.95-5.65Q361.95-5 362.25-4.6 362.55-4.2 363.15-4.2L363.15-4.2Q363.5-4.2 363.83-4.3 364.15-4.4 364.25-4.4L364.25-4.4 365.45-0.2Q363.75 0.75 361.65 0.75L361.65 0.75ZM385.4-6.4Q385.4-5.1 385.75-4.48 386.1-3.85 386.9-3.45L386.9-3.45 385.65 0.65Q383.6 0.4 382.38-0.45 381.15-1.3 380.55-3.05L380.55-3.05Q378.25 0.75 374.1 0.75L374.1 0.75Q370.8 0.75 368.85-1.48 366.9-3.7 366.9-7.4L366.9-7.4Q366.9-11.7 369.58-13.95 372.25-16.2 377.35-16.2L377.35-16.2 379.4-16.2 379.4-18.05Q379.4-20.55 378.53-21.58 377.65-22.6 375.7-22.6L375.7-22.6Q373.35-22.6 369.85-21.3L369.85-21.3 368.45-25.3Q370.45-26.2 372.6-26.68 374.75-27.15 376.7-27.15L376.7-27.15Q385.4-27.15 385.4-18.35L385.4-18.35 385.4-6.4ZM375.75-3.7Q378.15-3.7 379.4-7L379.4-7 379.4-12.55 377.95-12.55Q375.4-12.55 374.23-11.4 373.05-10.25 373.05-7.85L373.05-7.85Q373.05-5.8 373.75-4.75 374.45-3.7 375.75-3.7L375.75-3.7ZM409.85-26.45L402.85 0.1Q401.55 4.9 398.65 7.65 395.75 10.4 390.9 10.85L390.9 10.85 390.2 6.5Q393.35 5.85 394.92 4.42 396.5 3 397.4 0L397.4 0 395.1 0 388.4-26.45 394.65-26.45 399.05-4.1 403.75-26.45 409.85-26.45Z" opacity="1" transform="matrix(1,0,0,1,0,0)" fill="#000000" class="slogan-text-1" dataFillPaletteColor="quaternary" id="text-1"></path></svg></g></svg></g></svg></g></svg></g><g><svg viewBox="0 0 244.43135999999998 217.30746595923654" height="217.30746595923654" width="244.43135999999998"><g><svg xmlns="http://www.w3.org/2000/svg" data-name="Layer 1" viewBox="19.09 22.52 61.81999999999999 54.96000000000001" x="0" y="0" height="217.30746595923654" width="244.43135999999998" class="icon-icon-0" dataFillPaletteColor="accent" id="icon-0"><path d="M65.68 66.91V65.72a5 5 0 0 0-0.38-1.45l-3.49 2.92h3.83C65.66 67.1 65.67 67 65.68 66.91Z" fill="#f1eeef" dataFillPaletteColor="accent"></path><path d="M56.38 71.73h3.93a5.41 5.41 0 0 0 4.84-3H60Z" fill="#f1eeef" dataFillPaletteColor="accent"></path><path d="M67.22 77.48h6.46l2.41-20.71c0-3.88-4.63-6.37-6.09-7.07-0.58 0.54-1.81 1.66-3.51 3.08a96 96 0 0 1-8.62 6.47h0c-1.19 0.79-2.37 1.53-3.49 2.18-5.4 3.14-10.07 4.71-13.85 4.7l-4 5.22L35.3 73h0L32 77.34l0.07 0.14H42.64a12.31 12.31 0 0 0 7.85-2.84l7-5.86 1.68-1.41L65 62.48h0l0.46-0.39h0l0.45-0.37a0.77 0.77 0 0 1 1.27 0.59v3.31a0.84 0.84 0 0 1 0 0.12 6.74 6.74 0 0 1 0 1.3Z" fill="#f1eeef" dataFillPaletteColor="accent"></path><path d="M39.52 64.92a0.89 0.89 0 0 1 0.67-0.34c3.25 0.11 7.26-1.13 12-3.68L41.63 57a0.77 0.77 0 0 1 0.54-1.45l11.73 4.36c0.54-0.32 1.09-0.65 1.65-1l0.19-0.12L39.54 52.6a2.85 2.85 0 0 0-1-0.2h-0.13a3.05 3.05 0 0 0-2.32 1.15A8.26 8.26 0 0 1 34.44 55a8.07 8.07 0 0 1-11.25-2.2 0.93 0.93 0 0 0-1.39-0.16 0.91 0.91 0 0 0-0.28 0.65V67.19H37.77Zm-13.34 0.2a0.77 0.77 0 1 1 0-1.54H37.76a0.77 0.77 0 0 1 0 1.54Z" fill="#f1eeef" dataFillPaletteColor="accent"></path><path d="M25.28 71.73h9l1.12-1.46 1.17-1.53h-15A3.77 3.77 0 0 0 25.28 71.73Z" fill="#f1eeef" dataFillPaletteColor="accent"></path><path d="M65.71 22.52H56.17a6.46 6.46 0 0 1-12.35 0H34.29L19.09 35.38l7.72 9.13 6.7-5.67a0.77 0.77 0 0 1 1.27 0.59V52.66l0.1-0.11a4.57 4.57 0 0 1 3.5-1.7h0.13a4.38 4.38 0 0 1 1.59 0.3l17.24 6.59 1.17-0.8 0.66-0.45c0.6-0.42 1.2-0.86 1.8-1.31l0.24-0.18q1-0.77 2.07-1.6l0.64-0.52 1.3-1.06V39.43a0.77 0.77 0 0 1 1.27-0.59l6.7 5.67 7.72-9.13Z" fill="#f1eeef" dataFillPaletteColor="accent"></path></svg></g></svg></g></svg></g><defs></defs></svg><rect width="395.52" height="130.59487716666536" fill="none" stroke="none" visibility="hidden"></rect></g></svg></g></svg>